<?xml version="1.0" encoding="UTF-8" standalone="no"?>
<svg width="32px" height="32px" viewBox="0 0 32 32" version="1.1" xmlns="http://www.w3.org/2000/svg" xmlns:xlink="http://www.w3.org/1999/xlink" xmlns:sketch="http://www.bohemiancoding.com/sketch/ns">
    <!-- Generator: Sketch 3.3.2 (12043) - http://www.bohemiancoding.com/sketch -->
    <title>location</title>
    <desc>Created with Sketch.</desc>
    <defs></defs>
    <g id="Page-1" stroke="none" stroke-width="1" fill="none" fill-rule="evenodd" sketch:type="MSPage">
        <g id="digital_jungle" sketch:type="MSArtboardGroup" transform="translate(-793.000000, -2994.000000)">
            <g id="contacts" sketch:type="MSLayerGroup" transform="translate(0.000000, 2847.000000)">
                <g id="location" transform="translate(793.000000, 147.000000)" sketch:type="MSShapeGroup">
                    <g>
                        <circle id="Oval-21" fill="#8053AA" cx="16" cy="16" r="16"></circle>
                        <path d="M16,24 C16.3137085,24 22,17.3137085 22,14 C22,10.6862915 19.3137085,8 16,8 C12.6862915,8 10,10.6862915 10,14 C10,17.3137085 15.6862915,24 16,24 Z M16,16 C17.1045695,16 18,15.1045695 18,14 C18,12.8954305 17.1045695,12 16,12 C14.8954305,12 14,12.8954305 14,14 C14,15.1045695 14.8954305,16 16,16 Z" id="Oval-24" fill="#FFFFFF"></path>
                    </g>
                </g>
            </g>
        </g>
    </g>
</svg>