<?xml version="1.0" encoding="UTF-8" standalone="no"?>
<svg width="32px" height="32px" viewBox="0 0 32 32" version="1.1" xmlns="http://www.w3.org/2000/svg" xmlns:xlink="http://www.w3.org/1999/xlink" xmlns:sketch="http://www.bohemiancoding.com/sketch/ns">
    <!-- Generator: Sketch 3.3.2 (12043) - http://www.bohemiancoding.com/sketch -->
    <title>phone</title>
    <desc>Created with Sketch.</desc>
    <defs></defs>
    <g id="Page-1" stroke="none" stroke-width="1" fill="none" fill-rule="evenodd" sketch:type="MSPage">
        <g id="digital_jungle" sketch:type="MSArtboardGroup" transform="translate(-120.000000, -2994.000000)">
            <g id="contacts" sketch:type="MSLayerGroup" transform="translate(0.000000, 2847.000000)">
                <g id="phone" transform="translate(120.000000, 147.000000)" sketch:type="MSShapeGroup">
                    <g>
                        <circle id="Oval-21" fill="#63B10C" cx="16" cy="16" r="16"></circle>
                        <path d="M17.6,19.2333333 C16.5333333,19.2333333 15.4666667,18.1666667 14.4,17.1 C13.3333333,16.0333333 12.2666667,14.9666667 12.2666667,13.9 C12.2666667,12.8333333 13.3333333,12.8333333 14.4,11.7666667 C15.4666667,10.7 12.2666667,7.5 11.2,7.5 C10.1333333,7.5 8,10.7 8,10.7 C8,12.8333333 10.192,17.1586667 12.2666667,19.2333333 C14.3402667,21.308 18.6666667,23.5 20.8,23.5 C20.8,23.5 24,21.3666667 24,20.3 C24,19.2333333 20.8,16.0333333 19.7333333,17.1 C18.6666667,18.1666667 18.6666667,19.2333333 17.6,19.2333333 Z" id="Shape" fill="#FFFFFF"></path>
                    </g>
                </g>
            </g>
        </g>
    </g>
</svg>