<?xml version="1.0" encoding="UTF-8" standalone="no"?>
<svg width="34px" height="35px" viewBox="0 0 34 35" version="1.1" xmlns="http://www.w3.org/2000/svg" xmlns:xlink="http://www.w3.org/1999/xlink" xmlns:sketch="http://www.bohemiancoding.com/sketch/ns">
    <!-- Generator: Sketch 3.3.2 (12043) - http://www.bohemiancoding.com/sketch -->
    <title>vk</title>
    <desc>Created with Sketch.</desc>
    <defs></defs>
    <g id="Page-1" stroke="none" stroke-width="1" fill="none" fill-rule="evenodd" sketch:type="MSPage">
        <g id="digital_jungle" sketch:type="MSArtboardGroup" transform="translate(-1143.000000, -522.000000)">
            <g id="1_section" sketch:type="MSLayerGroup" transform="translate(0.000000, -129.000000)">
                <g id="sharing-+-vk_hover" transform="translate(1022.000000, 652.000000)" sketch:type="MSShapeGroup">
                    <g id="vk_hover">
                        <g id="vk" transform="translate(122.000000, 0.000000)">
                            <ellipse id="Oval" stroke="#FFFFFF" stroke-width="2" fill="#4D75A3" cx="16" cy="16.072" rx="16" ry="16.072"></ellipse>
                            <path d="M16.5280273,21.866162 C16.5280273,21.866162 16.8561692,21.8302118 17.0242418,21.6522141 C17.1780861,21.4891226 17.1727505,21.1813533 17.1727505,21.1813533 C17.1727505,21.1813533 17.1522972,19.7442194 17.8290343,19.5320251 C18.4959893,19.3233382 19.3523596,20.9218099 20.2611971,21.5364718 C20.9477161,22.0011947 21.4688303,21.8994818 21.4688303,21.8994818 L23.897436,21.866162 C23.897436,21.866162 25.1673184,21.7890005 24.5652803,20.8043139 C24.515481,20.723645 24.2140173,20.0756633 22.7600553,18.7446266 C21.23673,17.3513345 21.4412629,17.5766813 23.2749446,15.1662596 C24.391872,13.6984365 24.8382873,12.8023103 24.6986714,12.419133 C24.5661696,12.0526157 23.744481,12.1499444 23.744481,12.1499444 L21.0108545,12.1666043 C21.0108545,12.1666043 20.8081002,12.1394224 20.657813,12.2279828 C20.5110829,12.3147896 20.4159306,12.5173387 20.4159306,12.5173387 C20.4159306,12.5173387 19.9837437,13.652841 19.4066053,14.6191141 C18.18919,16.6568805 17.7027575,16.7647313 17.5035602,16.6384669 C17.0402488,16.3429733 17.1558543,15.4529849 17.1558543,14.8207863 C17.1558543,12.8452752 17.4599858,12.0219264 16.5644875,11.8088553 C16.2674702,11.7378316 16.0487089,11.6913593 15.2883802,11.6834678 C14.3128472,11.6738226 13.4876015,11.6869751 13.0198437,11.9123219 C12.708598,12.0622609 12.4684942,12.3972121 12.6152243,12.4165025 C12.7957468,12.4401771 13.2048126,12.5252302 13.4217953,12.8163397 C13.7019164,13.1925022 13.6921344,14.0360183 13.6921344,14.0360183 C13.6921344,14.0360183 13.8530929,16.3613868 13.3159717,16.6498658 C12.9478125,16.8480307 12.4427053,16.4438094 11.3569024,14.5945627 C10.8011065,13.64758 10.3813695,12.6006381 10.3813695,12.6006381 C10.3813695,12.6006381 10.3004456,12.4051037 10.155494,12.2998834 C9.98030719,12.1727422 9.735757,12.1332846 9.735757,12.1332846 L7.13818937,12.1499444 C7.13818937,12.1499444 6.74779835,12.1604665 6.60462533,12.3279421 C6.47745923,12.4761274 6.59484332,12.7838967 6.59484332,12.7838967 C6.59484332,12.7838967 8.62861161,17.4758451 10.9318297,19.8406713 C13.0438541,22.0082094 15.4413352,21.866162 15.4413352,21.866162 L16.5280273,21.866162 Z" id="Shape" fill="#FFFFFF"></path>
                        </g>
                    </g>
                </g>
            </g>
        </g>
    </g>
</svg>