<?xml version="1.0" encoding="UTF-8" standalone="no"?>
<svg width="34px" height="35px" viewBox="0 0 34 35" version="1.1" xmlns="http://www.w3.org/2000/svg" xmlns:xlink="http://www.w3.org/1999/xlink" xmlns:sketch="http://www.bohemiancoding.com/sketch/ns">
    <!-- Generator: Sketch 3.3.2 (12043) - http://www.bohemiancoding.com/sketch -->
    <title>facebook</title>
    <desc>Created with Sketch.</desc>
    <defs></defs>
    <g id="Page-1" stroke="none" stroke-width="1" fill="none" fill-rule="evenodd" sketch:type="MSPage">
        <g id="digital_jungle" sketch:type="MSArtboardGroup" transform="translate(-1143.000000, -562.000000)">
            <g id="1_section" sketch:type="MSLayerGroup" transform="translate(0.000000, -129.000000)">
                <g id="sharing-+-vk_hover" transform="translate(1022.000000, 652.000000)" sketch:type="MSShapeGroup">
                    <g id="sharing" transform="translate(88.000000, 39.000000)">
                        <g id="facebook" transform="translate(34.000000, 0.988364)">
                            <rect id="Rectangle" x="0" y="0" width="32" height="32.144"></rect>
                            <ellipse id="Oval" stroke="#FFFFFF" stroke-width="2" fill="#3B5998" cx="16" cy="16.072" rx="16" ry="16.072"></ellipse>
                            <path d="M16.9561496,24.108 L13.4089031,24.108 L13.4089031,15.7056668 L11.6363636,15.7056668 L11.6363636,12.8105046 L13.4089031,12.8105046 L13.4089031,11.0723468 C13.4089031,8.71061566 14.4092418,7.30545455 17.2531082,7.30545455 L19.6201068,7.30545455 L19.6201068,10.2016772 L18.1407327,10.2016772 C17.0336406,10.2016772 16.9604847,10.6062575 16.9604847,11.3613328 L16.9556077,12.8105046 L19.6363636,12.8105046 L19.3226063,15.7056668 L16.9556077,15.7056668 L16.9556077,24.108 L16.9561496,24.108 Z" id="Shape" fill="#FFFFFF"></path>
                        </g>
                    </g>
                </g>
            </g>
        </g>
    </g>
</svg>